# xmcd CD database file
#
# Track frame offsets:
#	150
#	1219
#	30485
#	49593
#	66552
#	70192
#	86633
#	115771
#	139605
#	145377
#	155088
#	169888
#
# Disc length: 2348 seconds
#
# Revision: 0
# Processed by: cddbd v1.5PL3 Copyright (c) Steve Scherf et al.
# Submitted via: CDex 1.51
#
DISCID=a4092a0c
DTITLE=Various Artist(Hyper Rich) - ダイナマイト青春
DYEAR=1996
DGENRE=Hardcore
TTITLE0=M78
TTITLE1=Honey System - NEURON
TTITLE2=Bantan Teenage Riot - Soniq Doragolgo
TTITLE3=Kaminari - Soniq Doragolgo
TTITLE4=べリーヌ＆セブン
TTITLE5=Drug PAPA - ジャックバドラ
TTITLE6=Psycho Gun - Medicine Case
TTITLE7=Bambi - Soniq Doragolgo
TTITLE8=木こり - ボミットランチズ
TTITLE9=Old Strong Style Man - ジャックバドラ
TTITLE10=そんな日の夕暮れ - 超能力学園Z
TTITLE11=SUPER NOVA - ボミットランチズ
EXTD=YEAR: 1996/12/xx
EXTT0=
EXTT1=
EXTT2=
EXTT3=
EXTT4=
EXTT5=
EXTT6=
EXTT7=
EXTT8=
EXTT9=
EXTT10=
EXTT11=
PLAYORDER=
